<svg width="129" height="40" viewBox="0 0 129 40" fill="none" xmlns="http://www.w3.org/2000/svg">
<rect width="129" height="40" rx="4" fill="#4877F2"/>
<path d="M21.768 18.042L24.232 24.58H26.08L21.782 14.71L17.47 24.58H19.318L21.768 18.042ZM25.422 25V26.54H26.99V23.516H16.56V26.54H18.128V25H25.422ZM28.0971 21.78C28.0971 22.4333 28.2464 23.0167 28.5451 23.53C28.8531 24.034 29.2684 24.4307 29.7911 24.72C30.3138 25 30.9064 25.14 31.5691 25.14C32.2318 25.14 32.8198 25 33.3331 24.72C33.8558 24.4307 34.2711 24.034 34.5791 23.53C34.8871 23.0167 35.0411 22.4333 35.0411 21.78C35.0411 21.1173 34.8871 20.534 34.5791 20.03C34.2711 19.526 33.8558 19.134 33.3331 18.854C32.8198 18.5647 32.2318 18.42 31.5691 18.42C30.9064 18.42 30.3138 18.5647 29.7911 18.854C29.2684 19.134 28.8531 19.526 28.5451 20.03C28.2464 20.534 28.0971 21.1173 28.0971 21.78ZM29.6511 21.78C29.6511 21.3787 29.7351 21.024 29.9031 20.716C30.0711 20.408 30.2998 20.17 30.5891 20.002C30.8784 19.834 31.2051 19.75 31.5691 19.75C31.9238 19.75 32.2458 19.834 32.5351 20.002C32.8338 20.17 33.0671 20.408 33.2351 20.716C33.4031 21.024 33.4871 21.3787 33.4871 21.78C33.4871 22.1813 33.4031 22.536 33.2351 22.844C33.0671 23.1427 32.8338 23.3807 32.5351 23.558C32.2458 23.726 31.9238 23.81 31.5691 23.81C31.2051 23.81 30.8784 23.726 30.5891 23.558C30.2998 23.3807 30.0711 23.1427 29.9031 22.844C29.7351 22.536 29.6511 22.1813 29.6511 21.78ZM39.5418 19.75C39.9058 19.75 40.2324 19.834 40.5218 20.002C40.8111 20.17 41.0398 20.408 41.2078 20.716C41.3758 21.024 41.4598 21.3787 41.4598 21.78C41.4598 22.1813 41.3758 22.536 41.2078 22.844C41.0398 23.1427 40.8111 23.3807 40.5218 23.558C40.2324 23.726 39.9058 23.81 39.5418 23.81C39.1778 23.81 38.8511 23.726 38.5618 23.558C38.2724 23.3807 38.0391 23.1427 37.8618 22.844C37.6938 22.536 37.6098 22.1813 37.6098 21.78L35.9998 20.94C35.9998 21.864 36.1538 22.6387 36.4618 23.264C36.7698 23.8893 37.1898 24.3607 37.7218 24.678C38.2631 24.986 38.8698 25.14 39.5418 25.14C40.2231 25.14 40.8204 24.9953 41.3338 24.706C41.8564 24.4167 42.2671 24.02 42.5658 23.516C42.8644 23.0027 43.0138 22.424 43.0138 21.78C43.0138 21.1267 42.8644 20.548 42.5658 20.044C42.2764 19.54 41.8751 19.1433 41.3618 18.854C40.8484 18.5647 40.2651 18.42 39.6118 18.42L39.5418 19.75ZM36.9238 21.78H37.6098C37.6098 21.4533 37.6658 21.164 37.7778 20.912C37.8991 20.66 38.0531 20.45 38.2398 20.282C38.4264 20.1047 38.6318 19.974 38.8558 19.89C39.0891 19.7967 39.3178 19.75 39.5418 19.75L39.6118 18.42C39.2104 18.42 38.8464 18.4993 38.5198 18.658C38.1931 18.8073 37.9084 19.0267 37.6658 19.316C37.4324 19.6053 37.2504 19.96 37.1198 20.38C36.9891 20.7907 36.9238 21.2573 36.9238 21.78ZM35.9998 20.94L37.4698 21.71L37.3298 20.24C37.3298 19.7733 37.3904 19.316 37.5118 18.868C37.6331 18.42 37.8524 18.0187 38.1698 17.664C38.4964 17.3093 38.9491 17.0293 39.5278 16.824C40.0411 16.6467 40.4984 16.4273 40.8998 16.166C41.3104 15.8953 41.6418 15.5827 41.8938 15.228C42.1458 14.8733 42.2951 14.4907 42.3418 14.08H40.8718C40.8064 14.416 40.6104 14.7287 40.2838 15.018C39.9571 15.298 39.4764 15.5547 38.8418 15.788C38.1044 16.0587 37.5258 16.432 37.1058 16.908C36.6951 17.3747 36.4058 17.944 36.2378 18.616C36.0791 19.288 35.9998 20.0627 35.9998 20.94ZM45.4258 23.096C45.4258 22.872 45.4771 22.6807 45.5798 22.522C45.6918 22.354 45.8551 22.228 46.0698 22.144C46.2938 22.0507 46.5645 22.004 46.8818 22.004C47.2738 22.004 47.6191 22.0553 47.9178 22.158C48.2165 22.2513 48.5105 22.4053 48.7998 22.62V21.822C48.7251 21.7287 48.5898 21.6213 48.3938 21.5C48.1978 21.3787 47.9505 21.2713 47.6518 21.178C47.3625 21.0847 47.0311 21.038 46.6578 21.038C46.0978 21.038 45.6078 21.122 45.1878 21.29C44.7771 21.458 44.4598 21.7007 44.2358 22.018C44.0118 22.3353 43.8998 22.7133 43.8998 23.152C43.8998 23.5907 43.9978 23.9593 44.1938 24.258C44.3991 24.5473 44.6698 24.7667 45.0058 24.916C45.3511 25.0653 45.7338 25.14 46.1538 25.14C46.6018 25.14 47.0078 25.0653 47.3718 24.916C47.7358 24.7573 48.0251 24.5333 48.2398 24.244C48.4545 23.9453 48.5618 23.5907 48.5618 23.18L48.3378 22.452C48.3378 22.8253 48.2631 23.124 48.1138 23.348C47.9645 23.572 47.7591 23.7353 47.4978 23.838C47.2365 23.9407 46.9425 23.992 46.6158 23.992C46.3918 23.992 46.1911 23.9593 46.0138 23.894C45.8365 23.8193 45.6918 23.7167 45.5798 23.586C45.4771 23.4553 45.4258 23.292 45.4258 23.096ZM45.0898 20.254C45.1925 20.1887 45.3371 20.1093 45.5238 20.016C45.7198 19.9133 45.9485 19.8247 46.2098 19.75C46.4711 19.6753 46.7558 19.638 47.0638 19.638C47.4185 19.638 47.7171 19.722 47.9598 19.89C48.2118 20.0487 48.3378 20.2773 48.3378 20.576V25H49.8218V20.408C49.8218 19.9787 49.7051 19.6193 49.4718 19.33C49.2478 19.0313 48.9351 18.8027 48.5338 18.644C48.1325 18.4853 47.6658 18.406 47.1338 18.406C46.5551 18.406 46.0418 18.49 45.5938 18.658C45.1458 18.826 44.7771 18.9987 44.4878 19.176L45.0898 20.254ZM52.5629 21.64V22.298H54.4249C54.6115 22.298 54.7702 22.3167 54.9009 22.354C55.0409 22.3913 55.1482 22.4473 55.2229 22.522C55.3069 22.5967 55.3722 22.6807 55.4189 22.774C55.4655 22.8673 55.4889 22.97 55.4889 23.082C55.4889 23.2967 55.4049 23.4833 55.2369 23.642C55.0689 23.8007 54.7982 23.88 54.4249 23.88H52.5629V25H54.8869C55.6242 25 56.1515 24.832 56.4689 24.496C56.7955 24.1507 56.9589 23.7353 56.9589 23.25C56.9589 22.83 56.8562 22.5033 56.6509 22.27C56.4455 22.0367 56.1655 21.8733 55.8109 21.78C55.4562 21.6867 55.0549 21.64 54.6069 21.64H52.5629ZM52.5629 21.92H54.4669C54.8682 21.92 55.2322 21.864 55.5589 21.752C55.8949 21.6307 56.1655 21.4533 56.3709 21.22C56.5762 20.9773 56.6789 20.674 56.6789 20.31C56.6789 19.89 56.5762 19.554 56.3709 19.302C56.1655 19.0407 55.8949 18.854 55.5589 18.742C55.2322 18.6207 54.8682 18.56 54.4669 18.56H52.5629V19.68H54.2849C54.5742 19.68 54.7982 19.75 54.9569 19.89C55.1249 20.03 55.2089 20.2073 55.2089 20.422C55.2089 20.5247 55.1855 20.6227 55.1389 20.716C55.0922 20.8093 55.0315 20.8933 54.9569 20.968C54.8822 21.0427 54.7842 21.0987 54.6629 21.136C54.5509 21.1733 54.4249 21.192 54.2849 21.192H52.5629V21.92ZM51.6809 18.56V25H53.1649V18.56H51.6809ZM64.1888 19.96L64.2588 18.07L58.4768 23.6L58.4068 25.49L64.1888 19.96ZM59.8908 18.56H58.4068V25.49L59.8908 23.782V18.56ZM64.2588 18.07L62.7748 19.778V25H64.2588V18.07ZM65.3571 18.56V19.89H69.4311V18.56H65.3571ZM66.6591 18.84V25H68.1431V18.84H66.6591ZM70.492 18.56V25H72.018V18.56H70.492ZM71.556 22.032H73.404C73.7494 22.032 74.006 22.1067 74.174 22.256C74.3514 22.4053 74.44 22.62 74.44 22.9C74.44 23.0773 74.398 23.2313 74.314 23.362C74.2394 23.4927 74.1227 23.5907 73.964 23.656C73.8147 23.7213 73.628 23.754 73.404 23.754H71.556V25H73.558C74.006 25 74.4074 24.9207 74.762 24.762C75.1167 24.6033 75.3967 24.37 75.602 24.062C75.8074 23.7447 75.91 23.3573 75.91 22.9C75.91 22.2093 75.6814 21.7053 75.224 21.388C74.776 21.0613 74.2207 20.898 73.558 20.898H71.556V22.032Z" fill="white"/>
<path d="M103 14.1665V25.8332" stroke="white" stroke-width="2" stroke-linecap="round" stroke-linejoin="round"/>
<path d="M97.1667 20H108.833" stroke="white" stroke-width="2" stroke-linecap="round" stroke-linejoin="round"/>
</svg>
